<?xml version="1.0" encoding="UTF-8"?>
<svg version="1.1" xmlns="http://www.w3.org/2000/svg" width="64" height="40" viewBox="0 0 64 40">
<path d="M0 0 C1.32 0 2.64 0 4 0 C4 2.64 4 5.28 4 8 C6.64 8 9.28 8 12 8 C12 11.96 12 15.92 12 20 C8.04 20 4.08 20 0 20 C0 13.4 0 6.8 0 0 Z M4 12 C4 13.32 4 14.64 4 16 C5.32 16 6.64 16 8 16 C8 14.68 8 13.36 8 12 C6.68 12 5.36 12 4 12 Z " fill="#FFFFFF" transform="translate(6,7)"/>
<path d="M0 0 C1.32 0 2.64 0 4 0 C4 1.32 4 2.64 4 4 C2.68 4 1.36 4 0 4 C0 2.68 0 1.36 0 0 Z " fill="#FFFFFF" transform="translate(20,7)"/>
<path d="M0 0 C1.32 0 2.64 0 4 0 C4 1.32 4 2.64 4 4 C2.68 4 1.36 4 0 4 C0 2.68 0 1.36 0 0 Z " fill="#FFFFFF" transform="translate(26,7)"/>
<path d="M0 0 C1.32 0 2.64 0 4 0 C4 3.96 4 7.92 4 12 C2.68 12 1.36 12 0 12 C0 8.04 0 4.08 0 0 Z " fill="#FFFFFF" transform="translate(20,15)"/>
<path d="M0 0 C1.32 0 2.64 0 4 0 C4 5.28 4 10.56 4 16 C2.68 16 1.36 16 0 16 C0 16.99 0 17.98 0 19 C-2.64 19 -5.28 19 -8 19 C-8 17.68 -8 16.36 -8 15 C-5.36 15 -2.72 15 0 15 C0 10.05 0 5.1 0 0 Z " fill="#FFFFFF" transform="translate(26,15)"/>
<path d="M0 0 C3.96 0 7.92 0 12 0 C12 3.96 12 7.92 12 12 C8.04 12 4.08 12 0 12 C0 8.04 0 4.08 0 0 Z M4 4 C4 5.32 4 6.64 4 8 C5.32 8 6.64 8 8 8 C8 6.68 8 5.36 8 4 C6.68 4 5.36 4 4 4 Z " fill="#FFFFFF" transform="translate(32,15)"/>
<path d="M0 0 C1.32 0 2.64 0 4 0 C4 2.64 4 5.28 4 8 C5.32 8 6.64 8 8 8 C8 5.36 8 2.72 8 0 C9.32 0 10.64 0 12 0 C12 3.96 12 7.92 12 12 C8.04 12 4.08 12 0 12 C0 8.04 0 4.08 0 0 Z " fill="#FFFFFF" transform="translate(46,15)"/>
</svg>
